<svg width="135" height="121" viewBox="0 0 135 121" fill="none" xmlns="http://www.w3.org/2000/svg">
<g clip-path="url(#clip0_92_92)">
<mask id="mask0_92_92" style="mask-type:luminance" maskUnits="userSpaceOnUse" x="0" y="0" width="135" height="121">
<path d="M135 0H0V121H135V0Z" fill="white"/>
</mask>
<g mask="url(#mask0_92_92)">
<path d="M135 0H0V121H135V0Z" fill="#761EBB"/>
<path d="M42.0879 44.5789C49.6765 38.5218 57.572 32.8313 65.5622 27.384C70.5504 23.9834 75.9383 21.2035 81.2028 18.3144C85.3931 16.015 89.5056 13.5982 93.4437 10.8471C94.1434 10.3582 97.095 7.6781 97.9045 8.52963" stroke="#D2B467" stroke-opacity="0.79" stroke-linecap="round"/>
<path d="M41.5983 46.1238C40.3967 46.0449 42.6637 45.1962 42.9312 45.0939C47.9036 43.192 52.7472 40.2234 57.4023 37.6122C65.0411 33.327 72.8343 29.2939 80.6591 25.3955C88.2537 21.6117 95.8101 17.6767 103.535 14.1945" stroke="#D2B467" stroke-opacity="0.79" stroke-linecap="round"/>
<path d="M40.8639 47.4113C40.6468 47.1503 43.8351 45.5421 44.2368 45.2941C45.2608 44.6619 46.3282 44.4879 47.4193 44.0066C49.814 42.9504 52.2246 41.879 54.5731 40.7164C58.0422 38.9994 61.6646 37.6785 65.1273 35.9385C70.0052 33.4871 74.944 31.1627 79.8975 28.886C85.3237 26.3919 90.7857 23.8309 96.2997 21.5617C100.898 19.669 105.708 18.4107 110.39 16.7694" stroke="#D2B467" stroke-opacity="0.79" stroke-linecap="round"/>
<path d="M40.1295 48.6988C39.7341 47.5205 42.1727 47.4237 42.8224 47.4113C44.758 47.3743 46.6812 46.4767 48.453 45.7376C51.767 44.3554 55.2167 43.4481 58.6264 42.3759C68.868 39.1552 78.8727 35.1063 89.1048 31.8472C98.236 28.9389 107.66 26.185 117.244 25.7817" stroke="#D2B467" stroke-opacity="0.79" stroke-linecap="round"/>
<path d="M40.1295 48.4413C39.9817 47.042 42.7472 47.2075 43.8016 47.0966C49.5218 46.4949 55.1893 45.5614 60.8567 44.5217C72.5623 42.3741 83.9958 38.6433 95.2659 34.7368C105.184 31.2988 115.208 28.7481 125.568 27.3267" stroke="#D2B467" stroke-opacity="0.79" stroke-linecap="round"/>
<path d="M39.6399 48.6988C39.7189 47.1201 40.2735 47.0377 41.3536 47.6688C44.6393 49.5888 50.0959 48.7849 53.5941 48.4413C64.3 47.3895 74.9004 45.2251 85.5145 43.4202C96.4337 41.5633 107.395 39.3854 118.469 40.7164" stroke="#D2B467" stroke-opacity="0.79" stroke-linecap="round"/>
<path d="M41.1086 47.1538C43.4261 44.3286 46.713 42.5048 49.5682 40.3302C55.1871 36.0503 61.2017 32.6254 67.4122 29.3867C77.2446 24.259 87.6985 20.8296 98.1218 17.313C106.611 14.449 115.192 11.7759 123.854 9.55957" stroke="#D2B467" stroke-opacity="0.79" stroke-linecap="round"/>
<path d="M38.4158 48.1838C42.9247 47.9048 47.4201 47.9263 51.9347 47.9263C59.9211 47.9263 67.7043 45.8732 75.5317 44.4358C94.7878 40.8994 113.493 34.9254 133.157 34.2791" stroke="#D2B467" stroke-opacity="0.79" stroke-linecap="round"/>
<path d="M41.5984 49.4712C41.5984 48.846 42.0608 48.3537 42.0608 47.8118C42.0608 47.3353 40.2312 48.3741 40.0752 48.4413C38.5784 49.0853 37.0555 49.4358 35.6958 50.4011C32.3197 52.7981 29.2062 55.5097 26.1754 58.3689C22.1818 62.1371 18.7264 66.9754 15.703 71.616C13.2461 75.3868 11.1869 79.2821 9.4196 83.4463C8.07695 86.6095 5.74308 94.2048 10.7524 94.7905" stroke="#D2B467" stroke-opacity="0.79" stroke-linecap="round"/>
<path d="M10.5076 94.533C11.4515 94.533 12.4089 94.5822 13.3501 94.5187C16.6962 94.2916 20.1252 91.6467 22.748 89.6406" stroke="#D2B467" stroke-opacity="0.79" stroke-linecap="round"/>
<path d="M20.5445 90.4129C20.1682 89.1759 20.6894 89.2996 21.6326 88.6963C24.7317 86.7139 27.882 84.8381 30.9626 82.817C34.4337 80.5396 38.1709 78.6572 41.5574 76.251C44.0731 74.463 46.559 72.7011 49.1872 71.101" stroke="#D2B467" stroke-opacity="0.79" stroke-linecap="round"/>
<path d="M49.4321 72.3884C49.5211 73.979 49.5019 75.7172 49.7858 77.2809C50.2015 79.5699 51.3838 81.5667 51.7443 83.8756C52.2543 87.1432 52.0926 90.3406 51.6354 93.6031C51.0765 97.5923 50.9027 101.586 50.6562 105.605" stroke="#D2B467" stroke-opacity="0.79" stroke-linecap="round"/>
<path d="M38.4158 110.24C43.161 107.982 47.3633 104.741 52.1251 102.515" stroke="#D2B467" stroke-opacity="0.79" stroke-linecap="round"/>
<path d="M49.4321 104.575C50.2053 103.778 51.0685 102.628 52.125 102.258" stroke="#D2B467" stroke-opacity="0.79" stroke-linecap="round"/>
<path d="M49.677 104.575C49.5762 105.53 48.3151 104.496 49.7994 103.803C51.301 103.101 49.7297 103.691 49.1874 104.69C48.8371 105.334 50.9676 103.426 51.3907 103.044C52.2081 102.307 50.8988 103.663 50.6563 103.86C50.523 103.968 49.5712 105.062 49.5818 105.062C49.9179 105.062 50.1943 104.463 50.5067 104.332C51.037 104.109 49.6457 105.123 49.2418 105.548C48.0231 106.83 51.209 104.094 51.5267 103.603C51.7452 103.264 50.0549 103.144 49.7314 103.144C49.6917 103.144 50.118 103.61 50.1666 103.674C50.4828 104.09 50.7249 103.495 50.9011 103.288C51.2788 102.843 52.7378 100.226 52.2475 100.856C51.7696 101.47 51.4146 103.908 51.6219 103.144C51.8523 102.296 50.7966 100.594 51.5131 99.8399C51.7382 99.6034 51.8181 102.521 51.6355 103.001C51.5606 103.199 51.6022 100.47 51.6355 99.9974C51.6972 99.1216 51.9142 100.07 51.8667 100.47C51.7799 101.2 51.7361 102.059 51.5811 102.773C51.2273 104.401 51.0399 101.295 51.2003 100.77C51.4622 99.9128 52.5087 97.9227 52.1251 99.9405" stroke="#D2B467" stroke-opacity="0.79" stroke-linecap="round"/>
<path d="M53.1044 100.713C52.8791 100.683 52.9421 100.629 52.8596 100.455" stroke="#D2B467" stroke-opacity="0.79" stroke-linecap="round"/>
<path d="M38.9054 112.3C39.083 111.179 40.7686 110.617 41.5711 110.097C42.7665 109.323 43.9679 108.523 45.1209 107.68C47.2721 106.105 44.5327 108.028 43.7744 108.566C42.9878 109.125 36.2635 112.323 36.4981 113.187C36.6221 113.643 41.7873 109.89 42.2103 109.596C43.0164 109.038 44.1668 108.507 44.8081 107.736C45.6542 106.719 42.6691 109.235 41.5983 109.982C40.0076 111.093 38.3632 112.093 36.7565 113.173C36.3447 113.449 35.1498 113.873 35.5869 114.102C36.8744 114.78 40.88 111.044 41.7887 110.24C42.0529 110.006 43.5549 108.569 42.428 109.496C41.6629 110.126 40.9753 110.761 40.1294 111.27" stroke="#D2B467" stroke-opacity="0.79" stroke-linecap="round"/>
<path d="M40.1294 112.043C40.8467 111.623 41.4063 110.975 42.0879 110.497" stroke="#D2B467" stroke-opacity="0.79" stroke-linecap="round"/>
<path d="M43.5568 108.695C43.9257 108.646 43.645 108.455 43.3936 108.481C42.5689 108.563 41.753 109.319 41.0543 109.725C39.0594 110.884 36.862 111.874 35.0428 113.33C33.3556 114.68 36.19 112.255 36.5117 111.985C38.9716 109.921 41.7463 108.223 44.4272 106.492C45.7321 105.65 47.1756 104.995 44.9984 106.435C41.8726 108.502 38.4958 110.161 35.1516 111.785C34.0007 112.344 32.0649 113.573 34.4172 112.443C37.2783 111.069 39.8997 109.129 42.5775 107.408" stroke="#D2B467" stroke-opacity="0.79" stroke-linecap="round"/>
<path d="M15.6484 94.0181C17.9649 91.3379 21.0844 89.5848 23.8632 87.4803C25.0415 86.5879 26.1576 85.3161 27.3993 84.5475C30.9844 82.3297 20.888 90.0362 17.3213 92.2871C14.8608 93.8397 18.1569 91.7346 18.8854 91.3285C21.9297 89.6306 24.9288 87.82 27.9433 86.0642C29.561 85.1216 31.3199 84.2668 32.8667 83.2033C34.3478 82.1844 29.8159 85.0917 28.3241 86.0929C25.5323 87.9665 22.5786 89.5058 19.6606 91.1423C19.2818 91.355 19.1763 91.5202 19.6062 91.271C20.5237 90.7406 21.3914 90.1141 22.3127 89.5831C24.8143 88.1416 27.4648 86.9316 29.9154 85.4061C30.4009 85.1039 33.8217 83.137 31.6019 84.2762C28.4332 85.9017 25.4983 88.0427 22.4487 89.898C21.0478 90.75 19.6503 91.5965 18.3141 92.5589C18.3042 92.5661 17.0985 93.4341 17.2805 93.4888C18.4934 93.8529 21.1984 91.4954 22.1223 90.8705C24.9631 88.9499 27.7399 86.9272 30.5818 85.0056" stroke="#D2B467" stroke-opacity="0.79" stroke-linecap="round"/>
<path d="M21.2792 89.898C19.3473 90.8544 22.2848 88.1372 22.6529 87.8665C25.7099 85.6211 29.037 83.6624 32.2413 81.6579C34.7542 80.086 37.2512 78.476 39.7079 76.8085C41.4439 75.6305 39.0655 76.9626 38.5519 77.2809C36.0654 78.8207 33.4486 80.1153 30.9628 81.6579C30.2201 82.1192 29.4402 82.8049 28.6235 83.1171C27.8899 83.3977 29.9492 82.248 30.6364 81.8584C33.5842 80.1865 36.4923 78.4577 39.3679 76.651C40.5724 75.8946 41.799 75.1863 43.0128 74.4482C43.0735 74.4111 44.0849 73.7045 43.8561 73.7045C43.2154 73.7045 42.4537 74.1244 41.884 74.3625C39.9424 75.1731 38.0438 76.0792 36.1582 77.0234C34.6116 77.7975 33.0651 78.5677 31.5884 79.4837C31.3427 79.6362 30.1576 80.3567 30.1604 80.3562C32.3531 79.9722 34.5253 78.7152 36.5118 77.7384C39.6477 76.1969 42.8991 74.8106 45.937 73.0608C47.6356 72.0823 47.0536 72.2315 45.6513 72.9608C43.2236 74.2227 40.7016 75.2924 38.2391 76.4797C37.8554 76.6648 35.9514 77.8489 37.491 77.4809C38.9371 77.1356 40.4594 76.3179 41.8432 75.7355" stroke="#D2B467" stroke-opacity="0.79" stroke-linecap="round"/>
<path d="M38.9053 77.7958C36.126 77.9041 33.4783 80.6899 31.3162 82.1734" stroke="#D2B467" stroke-opacity="0.79" stroke-linecap="round"/>
<path d="M29.8475 84.2331C31.7226 82.0634 33.7374 80.4147 36.0766 78.84C37.4389 77.9229 36.209 79.0621 35.6957 79.4837C34.1454 80.7578 32.5565 81.9761 30.9627 83.1889C30.671 83.411 28.0125 84.9912 29.0315 84.3762C31.7152 82.7562 34.3306 81.0816 36.947 79.3406C39.9282 77.3571 42.9677 75.4907 45.8961 73.4182C46.1831 73.2149 48.9175 71.4215 47.8002 71.9303C45.9419 72.7773 44.1436 73.7536 42.3328 74.7056C41.1352 75.3355 39.9205 75.9394 38.7423 76.6084C38.3632 76.8234 37.3366 77.4311 37.763 77.4952C39.4774 77.7527 42.1444 76.1907 43.6928 75.5929C46.2886 74.5907 48.6824 73.3238 51.0915 71.916C52.4453 71.1253 51.674 71.2204 50.6019 71.616C48.007 72.5723 45.4748 73.6763 42.9856 74.9062C42.8765 74.9598 39.8981 76.4366 40.6735 76.7084C41.7226 77.0764 43.0845 76.3609 44.0464 75.9929" stroke="#D2B467" stroke-opacity="0.79" stroke-linecap="round"/>
<path d="M37.4365 49.7288C37.7543 49.4803 42.14 45.8527 41.7887 45.8664C40.9879 45.8976 40.1172 46.584 39.395 46.8964C36.2637 48.2503 32.911 49.7341 30.065 51.6743C28.2197 52.9324 34.1649 49.9908 36.1581 49.0135C37.8089 48.2041 39.4839 47.5193 40.9999 46.4385C41.7305 45.9177 42.4287 45.2423 43.2575 44.8936C45.7669 43.8378 38.2667 47.0772 35.7773 48.1838C35.461 48.3244 29.3225 51.179 31.1259 51.474C32.2448 51.6571 33.7285 50.8284 34.7436 50.444C36.7647 49.6787 38.7556 48.8088 40.755 47.9835C41.6743 47.6041 42.5981 47.2323 43.4888 46.7819C43.9019 46.573 44.6992 45.6131 44.6992 46.0953C44.6992 46.6977 39.8395 48.6033 39.3542 48.8419C36.6968 50.1483 34.0564 51.5044 31.3843 52.7758C30.8697 53.0207 28.3735 53.7457 28.1746 54.4781C28.0369 54.985 29.1952 54.4875 29.6706 54.3208C31.4017 53.7138 33.0553 52.8654 34.7572 52.175C35.1925 51.9984 41.5713 49.2426 41.1902 48.8419C40.0942 47.6889 34.1617 51.0808 33.1116 51.5598C31.0064 52.5203 28.8405 53.477 26.869 54.7213C26.0583 55.2329 25.4859 55.8716 26.8281 55.365C30.1946 54.094 33.5114 52.4773 36.6885 50.7587C37.0412 50.568 42.5428 47.617 41.6799 47.0394C41.027 46.6024 40.0399 47.265 39.4766 47.5544C37.5127 48.5632 35.637 49.5598 33.7644 50.7587" stroke="#D2B467" stroke-opacity="0.79" stroke-linecap="round"/>
<path d="M30.5817 52.8187C30.4255 53.0036 30.4063 53.1146 30.3369 53.3337" stroke="#D2B467" stroke-opacity="0.79" stroke-linecap="round"/>
<path d="M40.1294 75.993C39.983 74.6073 35.7042 78.0152 35.1788 78.4251C32.5407 80.4838 29.8767 82.5552 27.1545 84.4906C24.8872 86.1023 22.7338 87.9001 20.3542 89.3256C20.0907 89.4836 17.4092 91.1296 18.6542 89.9837C20.8623 87.9515 23.6052 86.3713 26.0256 84.6337C28.2249 83.0546 30.3559 81.407 32.6491 79.9843C32.8927 79.8335 36.158 78.029 36.158 78.2251C36.158 78.7892 34.5205 79.4992 34.1995 79.7125C32.602 80.7739 31.1128 82.0115 29.6026 83.2032" stroke="#D2B467" stroke-opacity="0.79" stroke-linecap="round"/>
<path d="M20.7895 89.3831C19.2556 90.5821 17.7016 91.7467 16.1381 92.9021C15.7832 93.1645 15.2257 93.7988 15.9341 93.2026C18.3973 91.1296 21.0137 89.2312 23.5096 87.194C26.5156 84.7415 29.839 82.7403 32.9755 80.4849C33.4367 80.1534 34.639 78.9616 34.3356 79.455C33.7421 80.4197 32.3919 81.2054 31.561 81.9154" stroke="#D2B467" stroke-opacity="0.79" stroke-linecap="round"/>
<path d="M17.8517 91.7003C17.5572 91.9219 15.8947 92.7313 16.3828 92.9877" stroke="#D2B467" stroke-opacity="0.79" stroke-linecap="round"/>
<path d="M21.0342 88.8681C19.007 89.0455 21.4116 87.5156 22.1222 87.0653C24.4933 85.5636 26.9339 84.5392 29.4801 83.4463C31.3542 82.6419 32.8259 80.849 34.6891 80.1705C36.2274 79.6102 32.3735 82.601 31.0442 83.5894C28.8051 85.2541 26.0719 87.0062 23.4551 87.9239C21.6609 88.5526 26.5465 85.6293 28.1336 84.5475C30.8775 82.6778 33.6754 80.7877 36.5388 79.1262C36.7131 79.0251 37.5393 78.5649 37.7628 78.6826C38.0073 78.8113 37.3592 79.0727 37.1372 79.2406C36.5678 79.671 35.9704 80.0495 35.3691 80.428C32.8162 82.0341 30.0903 83.5441 27.6168 85.263C25.9367 86.4304 28.3729 85.5525 28.9225 85.2343C32.6151 83.0982 36.1774 80.455 39.5853 77.8527C41.0475 76.7366 44.8092 72.9657 44.1142 74.72C43.3671 76.6062 39.9831 78.6179 38.2252 79.2832C36.5617 79.9136 41.4095 77.6599 42.9446 76.7372C44.889 75.5686 46.7152 73.8067 48.888 73.1033C50.311 72.6431 46.5828 75.099 45.3247 75.936C44.0934 76.7554 40.6561 79.4147 41.5029 78.1676C42.3457 76.9267 44.1388 76.0261 45.3247 75.2205C46.3314 74.5371 49.3953 72.6558 48.548 73.547C48.2909 73.8172 47.538 74.2962 47.732 74.8056C47.7818 74.9371 48.2043 74.489 48.2624 74.4481C48.7134 74.1321 49.234 73.9514 49.6768 73.6188C49.9632 73.4033 50.9238 72.3215 49.9081 72.7889C49.2389 73.0967 48.4939 73.6619 47.9632 74.1907C47.351 74.8006 44.329 75.5316 45.8007 74.4481C47.2481 73.3823 49.2041 72.5724 50.8465 71.8734C51.5863 71.5585 50.6815 72.0364 50.4929 72.1596C49.397 72.8746 48.2504 73.4663 47.0927 74.0619C45.5592 74.8515 40.6933 76.2222 42.4006 76.2222C43.0471 76.2222 43.7321 75.7642 44.291 75.478C45.4734 74.8736 46.712 74.441 47.9088 73.8763C49.2494 73.2431 52.9877 70.7651 51.7033 71.5154C50.2015 72.3933 48.7621 73.3846 47.2288 74.1907" stroke="#D2B467" stroke-opacity="0.79" stroke-linecap="round"/>
<path d="M73.6686 73.4183C73.988 72.7459 74.4029 74.8112 74.4029 75.0206C74.4029 76.3378 74.5805 77.6406 74.6614 78.9545C74.7454 80.3236 75.3064 81.6082 75.2733 83.0027C75.2234 85.1 74.0494 87.4548 73.3145 89.3687C72.0833 92.5761 72.7288 96.5945 73.4238 99.883C73.6292 100.856 74.9666 104.893 73.6686 105.348" stroke="#D2B467" stroke-opacity="0.79" stroke-linecap="round"/>
<path d="M93.4977 69.8131C93.9542 73.3591 94.8535 76.3167 95.9592 79.6124C97.1826 83.2585 97.4489 87.0935 97.4148 90.9279C97.3754 95.296 96.3921 99.7471 95.2112 103.917C94.7316 105.61 94.1475 107.178 93.5114 108.809C93.1263 109.797 93.1258 110.933 92.5186 111.785" stroke="#D2B467" stroke-opacity="0.79" stroke-linecap="round"/>
<path d="M100.598 44.3214C106.069 46.5884 112.102 48.0262 117.245 51.0734C119.622 52.4821 121.658 54.3031 123.011 56.8241C125.183 60.8718 124.205 66.9644 122.603 71.101C121.036 75.1454 117.554 78.1069 116.265 82.1734" stroke="#D2B467" stroke-opacity="0.79" stroke-linecap="round"/>
<path d="M81.0127 69.2982C89.1143 76.0256 96.5619 83.3094 105.765 88.4676C111.195 91.5097 116.894 94.1325 122.086 97.6227C125.283 99.772 127.422 102.074 127.771 106.12" stroke="#D2B467" stroke-opacity="0.79" stroke-linecap="round"/>
<path d="M74.6476 72.3884C74.6476 70.9739 73.6412 72.1458 73.1789 72.6458C71.7612 74.1791 71.0189 76.0891 70.1869 77.9958C69.0906 80.5064 67.6355 82.8795 66.8134 85.5205C66.1899 87.5261 65.9877 89.6715 65.3447 91.7003" stroke="#D2B467" stroke-opacity="0.79" stroke-width="4" stroke-linecap="round"/>
<path d="M62.8968 97.1077C62.5848 98.5293 61.5253 99.7349 60.938 100.97" stroke="#D2B467" stroke-opacity="0.79" stroke-width="4" stroke-linecap="round"/>
<path d="M66.324 90.1555C64.7308 91.5164 62.9742 92.8391 61.8359 94.6762C61.3158 95.5154 60.9649 96.4619 60.4486 97.3083C59.73 98.4852 58.7608 99.762 58.7351 101.228C58.7067 102.823 59.9779 104.06 61.4277 104.06" stroke="#D2B467" stroke-opacity="0.79" stroke-width="4" stroke-linecap="round"/>
<path d="M62.4072 95.048C61.2647 99.8532 59.4692 104.457 59.4692 109.467" stroke="#D2B467" stroke-opacity="0.79" stroke-width="4" stroke-linecap="round"/>
<path d="M63.8761 91.4429C60.5105 96.4503 58.2024 102.58 56.532 108.438" stroke="#D2B467" stroke-opacity="0.79" stroke-width="4" stroke-linecap="round"/>
<path d="M57.7559 59.5138C66.1432 56.9772 74.292 53.7204 82.8622 51.9175C87.5021 50.9415 92.2129 50.2915 96.9253 49.8432C101.839 49.3757 106.245 49.2438 110.879 51.0163" stroke="#D2B467" stroke-opacity="0.79" stroke-width="4" stroke-linecap="round"/>
<path d="M58.7349 59.2563C69.7844 56.5777 80.8712 54.5778 92.0289 52.504C98.697 51.2646 105.077 49.7288 111.859 49.7288" stroke="#D2B467" stroke-opacity="0.79" stroke-width="4" stroke-linecap="round"/>
<path d="M60.2036 59.2563C61.4302 58.5463 63.0901 58.3734 64.4196 58.1115C67.6706 57.4717 70.9416 56.9374 74.2121 56.4235C80.2199 55.4793 86.2439 54.6206 92.2737 53.8487C101.408 52.6793 111.022 51.8718 120.182 53.0762" stroke="#D2B467" stroke-opacity="0.79" stroke-width="4" stroke-linecap="round"/>
<path d="M59.2246 61.0586C65.5817 60.3039 71.85 58.8127 78.2654 58.7408C83.5819 58.6817 88.9377 58.3983 94.2458 58.0828C99.3065 57.7828 104.426 57.4253 109.492 57.8541C112.389 58.0994 115.562 58.2408 118.224 59.5138" stroke="#D2B467" stroke-opacity="0.79" stroke-width="4" stroke-linecap="round"/>
<path d="M60.6934 60.8011C62.3633 60.3956 63.9764 59.5873 65.671 59.1701C67.3635 58.7535 69.0896 58.5618 70.7853 58.169C75.4357 57.091 80.1911 56.7264 84.9298 56.2949C90.054 55.8285 94.9886 55.933 100.094 56.5523C104.247 57.0562 108.255 58.1784 112.348 58.9989" stroke="#D2B467" stroke-opacity="0.79" stroke-width="4" stroke-linecap="round"/>
<path d="M74.6477 57.7109C81.2265 56.3275 88.1556 56.1661 94.8578 56.1661C98.2654 56.1661 101.634 56.0904 105.004 56.6811" stroke="#D2B467" stroke-opacity="0.79" stroke-width="4" stroke-linecap="round"/>
<path d="M85.1746 56.4236C95.9425 52.9387 106.707 55.0485 117.489 56.9385" stroke="#D2B467" stroke-opacity="0.79" stroke-width="4" stroke-linecap="round"/>
<path d="M94.4769 54.6211C93.4248 53.5145 95.4151 53.6107 96.3543 53.5911C100.022 53.5147 103.684 53.7338 107.343 53.9774C113.606 54.3943 120.342 54.4013 126.302 56.681" stroke="#D2B467" stroke-opacity="0.79" stroke-width="4" stroke-linecap="round"/>
<path d="M93.2529 55.1361C92.5206 54.4761 96.5286 53.5449 97.0749 53.4767C99.3636 53.1911 101.707 53.0762 104.011 53.0762C106.734 53.0762 110.288 52.9569 112.838 54.1061" stroke="#D2B467" stroke-opacity="0.79" stroke-width="4" stroke-linecap="round"/>
<path d="M85.6641 52.5612C86.6285 52.5078 87.5693 52.0758 88.4928 51.8174C91.1297 51.0796 93.6679 50.6302 96.3811 50.444C99.9919 50.1963 103.608 50.1027 107.207 50.5013" stroke="#D2B467" stroke-opacity="0.79" stroke-width="4" stroke-linecap="round"/>
<path d="M92.7634 51.2737C98.5101 48.2515 106.106 48.9564 112.103 50.7587" stroke="#D2B467" stroke-opacity="0.79" stroke-width="4" stroke-linecap="round"/>
<path d="M80.2783 68.7833C83.511 69.7651 87.0919 70.6165 89.0917 73.6758C90.6392 76.0438 93.0665 77.3201 95.1982 78.9688C98.7292 81.6999 99.4641 85.6249 98.8836 89.898" stroke="#D2B467" stroke-opacity="0.79" stroke-width="4" stroke-linecap="round"/>
<path d="M95.4561 85.263C98.2401 83.3486 100.5 80.5584 103.045 78.3108C105.806 75.8725 108.724 73.4995 111.858 71.616C117.694 68.1081 123.394 64.8361 129.839 62.7322C131.136 62.3084 132.356 61.7183 133.62 61.2017C134.259 60.9398 134.122 60.8011 133.524 60.8011C132.969 60.8011 132.912 60.7409 132.912 60.1575C132.912 59.5823 132.719 60.0287 133.402 60.0287" stroke="#D2B467" stroke-opacity="0.79" stroke-width="4" stroke-linecap="round"/>
<path d="M73.9133 72.9033V73.1608" stroke="#D2B467" stroke-opacity="0.79" stroke-width="4" stroke-linecap="round"/>
<path d="M74.1581 73.1608C73.6632 72.7055 74.0136 74.3454 74.0357 74.52C74.3839 77.3052 74.1964 80.1705 74.457 82.9739C74.5804 84.3005 75.019 87.5835 76.1163 88.3532" stroke="#D2B467" stroke-opacity="0.79" stroke-width="4" stroke-linecap="round"/>
<path d="M74.6477 79.8556V86.5504" stroke="#D2B467" stroke-opacity="0.79" stroke-width="4" stroke-linecap="round"/>
<path d="M74.6477 84.2332C74.6761 85.9509 74.8021 87.6681 74.8925 89.3831" stroke="#D2B467" stroke-opacity="0.79" stroke-width="4" stroke-linecap="round"/>
<path d="M75.1372 94.2756V95.8204" stroke="#D2B467" stroke-opacity="0.79" stroke-width="4" stroke-linecap="round"/>
<path d="M74.6477 85.263C73.5677 85.894 74.3877 89.1433 74.539 90.0555C74.9015 92.2385 75.1725 94.3894 75.3821 96.5928" stroke="#D2B467" stroke-opacity="0.79" stroke-width="4" stroke-linecap="round"/>
<path d="M74.6477 90.1555C74.6477 91.9644 74.7817 93.7579 74.8925 95.5629" stroke="#D2B467" stroke-opacity="0.79" stroke-width="4" stroke-linecap="round"/>
<path d="M74.6476 87.0653C74.3103 85.6923 74.563 86.6106 74.6476 87.3659C74.8193 88.903 75.0389 90.4135 75.1371 91.9578" stroke="#D2B467" stroke-opacity="0.79" stroke-width="4" stroke-linecap="round"/>
<path d="M74.8924 89.1256C74.4685 89.1814 74.4533 101.076 75.382 103.03" stroke="#D2B467" stroke-opacity="0.79" stroke-width="4" stroke-linecap="round"/>
<path d="M74.8924 95.563C74.8924 95.4475 74.9438 93.2612 74.6476 93.417C74.0797 93.7154 74.4028 96.1536 74.4028 96.6359C74.4028 99.7123 74.5641 102.591 75.1372 105.605" stroke="#D2B467" stroke-opacity="0.79" stroke-width="4" stroke-linecap="round"/>
<path d="M74.6477 98.1376C74.6477 98.0299 74.6687 97.3796 74.4029 97.537C73.9018 97.8337 74.1581 99.499 74.1581 99.9543C74.1581 101.168 73.5866 104.747 74.4029 105.605" stroke="#D2B467" stroke-opacity="0.79" stroke-width="4" stroke-linecap="round"/>
<path d="M74.1581 100.198C73.2552 101.253 73.2499 102.898 73.9134 104.06" stroke="#D2B467" stroke-opacity="0.79" stroke-width="4" stroke-linecap="round"/>
<path d="M82.4814 70.8436C82.9416 71.7922 87.7879 79.939 89.3365 78.3108" stroke="#D2B467" stroke-opacity="0.79" stroke-width="4" stroke-linecap="round"/>
<path d="M86.1536 73.4183C88.0252 75.3869 89.9499 77.3687 91.5394 79.5981" stroke="#D2B467" stroke-opacity="0.79" stroke-width="4" stroke-linecap="round"/>
<path d="M88.1118 74.7056C89.0988 75.6421 90.0759 76.5875 91.0498 77.5384" stroke="#D2B467" stroke-opacity="0.79" stroke-width="4" stroke-linecap="round"/>
<path d="M85.1746 71.101C86.9227 72.1856 88.2743 73.7796 90.0571 74.8343C91.0326 75.4117 91.1755 76.5173 91.5395 77.5383" stroke="#D2B467" stroke-opacity="0.79" stroke-width="4" stroke-linecap="round"/>
<path d="M84.4402 71.101C85.7082 73.7691 88.5086 74.5155 90.7778 76.0073C92.0175 76.8223 92.339 78.0019 92.7634 79.3406" stroke="#D2B467" stroke-opacity="0.79" stroke-width="4" stroke-linecap="round"/>
<path d="M89.3359 75.478C91.2102 75.7598 92.9773 77.6787 93.7426 79.3981C94.2017 80.4285 94.9907 83.7309 95.9462 84.2331" stroke="#D2B467" stroke-opacity="0.79" stroke-width="4" stroke-linecap="round"/>
<path d="M94.7222 80.3705C95.3215 82.8944 95.9078 85.4001 96.6805 87.8383" stroke="#D2B467" stroke-opacity="0.79" stroke-width="4" stroke-linecap="round"/>
<path d="M95.2117 81.9153C95.2117 84.2143 95.9786 86.6244 96.4356 88.8681" stroke="#D2B467" stroke-opacity="0.79" stroke-width="4" stroke-linecap="round"/>
<path d="M95.7014 83.9756C95.7014 82.2733 96.0623 85.9779 96.191 86.4503C96.8581 88.9062 96.6947 91.518 97.1701 94.0181" stroke="#D2B467" stroke-opacity="0.79" stroke-width="4" stroke-linecap="round"/>
<path d="M96.1908 86.5503C96.0086 85.8558 95.946 85.1812 95.946 84.4618C95.946 83.9209 96.1341 85.5265 96.1908 86.0641C96.5076 89.0648 97.0266 92.0362 97.17 95.048" stroke="#D2B467" stroke-opacity="0.79" stroke-width="4" stroke-linecap="round"/>
<path d="M96.4356 88.3532C96.1971 87.5725 95.946 86.778 95.946 85.9498C95.946 85.2978 96.2276 87.2211 96.3132 87.8664C96.7723 91.3439 96.2654 94.9027 96.6804 98.3951" stroke="#D2B467" stroke-opacity="0.79" stroke-width="4" stroke-linecap="round"/>
<path d="M96.1909 87.8377C96.1909 89.4831 96.4688 91.1605 96.6805 92.7877C97.0219 95.4132 96.9253 98.0686 96.9253 100.713" stroke="#D2B467" stroke-opacity="0.79" stroke-width="4" stroke-linecap="round"/>
<path d="M97.9044 94.7905C98.0772 94.654 97.4763 98.9067 97.4148 99.425" stroke="#D2B467" stroke-opacity="0.79" stroke-width="4" stroke-linecap="round"/>
<path d="M35.9678 45.6089C36.4688 45.2735 36.6664 44.4549 36.8926 43.9208C37.4505 42.6038 38.1687 41.5179 39.0687 40.4303C42.4545 36.3387 46.4332 32.7946 50.5747 29.587C64.0941 19.1158 78.4198 10.5429 93.7426 3.3797" stroke="#D2B467" stroke-opacity="0.79" stroke-width="4" stroke-linecap="round"/>
<path d="M37.6814 43.8063C34.6838 45.7106 32.2468 47.9764 30.0379 50.8159C26.2694 55.6605 22.4312 60.2613 18.0151 64.4775C15.4355 66.94 13.0022 69.3064 10.7524 72.1165C10.0756 72.9619 9.32586 73.6597 8.58993 74.4338C8.46029 74.5702 8.03774 74.9631 8.30428 74.9631" stroke="#D2B467" stroke-opacity="0.79" stroke-width="4" stroke-linecap="round"/>
<path d="M51.6355 54.8786C53.2221 52.7924 55.7361 51.7096 57.9187 50.444C62.9174 47.546 68.3353 45.6484 73.7363 43.7778C88.4487 38.6824 103.364 33.9382 118.958 33.5066" stroke="#D2B467" stroke-opacity="0.79" stroke-width="4" stroke-linecap="round"/>
<path d="M34.9884 62.346C34.8573 60.9669 35.6611 61.0337 36.7021 60.4862C38.1694 59.7149 35.501 62.1581 36.7021 61.3161" stroke="#D2B467" stroke-opacity="0.79" stroke-width="4" stroke-linecap="round"/>
<path d="M113.817 91.4429C117.244 92.9993 117.827 97.1426 119.325 100.412C120.294 102.526 121.521 104.593 122.63 106.635" stroke="#D2B467" stroke-opacity="0.79" stroke-width="4" stroke-linecap="round"/>
<path d="M117.245 94.0181C116.149 93.37 117.12 94.7292 117.381 95.5773C118.111 97.9514 119.712 100.241 121.161 102.2C121.813 103.081 122.742 104.636 122.25 105.82C121.985 106.455 120.978 105.959 121.651 105.605" stroke="#D2B467" stroke-opacity="0.79" stroke-width="4" stroke-linecap="round"/>
<path d="M99.1284 84.2331C102.642 79.129 108.967 76.2631 113.763 72.6458C116.013 70.948 118.399 69.2982 120.767 67.7821C121.243 67.4771 122.63 66.5091 122.63 67.4959" stroke="#D2B467" stroke-opacity="0.79" stroke-width="4" stroke-linecap="round"/>
<path d="M100.107 83.2033C105.369 77.6693 111.798 73.1172 117.979 68.7833" stroke="#D2B467" stroke-opacity="0.79" stroke-width="4" stroke-linecap="round"/>
</g>
</g>
<defs>
<clipPath id="clip0_92_92">
<rect width="135" height="121" fill="white"/>
</clipPath>
</defs>
</svg>
