<svg width="257" height="219" viewBox="0 0 257 219" fill="none" xmlns="http://www.w3.org/2000/svg">
<g clip-path="url(#clip0_92_2)">
<mask id="mask0_92_2" style="mask-type:luminance" maskUnits="userSpaceOnUse" x="0" y="0" width="257" height="219">
<path d="M257 0H0V219H257V0Z" fill="white"/>
</mask>
<g mask="url(#mask0_92_2)">
<path d="M257 0H0V219H257V0Z" fill="#761EBB"/>
<path d="M80.1228 80.6841C94.5692 69.7212 109.6 59.422 124.811 49.5627C134.307 43.4079 144.564 38.3766 154.586 33.1475C162.563 28.9858 170.392 24.6116 177.889 19.6323C179.221 18.7475 184.84 13.8967 186.381 15.4379" stroke="#D2B467" stroke-opacity="0.79" stroke-linecap="round"/>
<path d="M79.1909 83.4803C76.9034 83.3374 81.219 81.8014 81.7283 81.6162C91.1943 78.174 100.415 72.801 109.277 68.075C123.819 60.3191 138.655 53.0196 153.551 45.9638C168.009 39.1153 182.394 31.9934 197.1 25.6909" stroke="#D2B467" stroke-opacity="0.79" stroke-linecap="round"/>
<path d="M77.7926 85.8106C77.3793 85.3382 83.4489 82.4275 84.2137 81.9786C86.1631 80.8344 88.1951 80.5195 90.2723 79.6484C94.8311 77.7367 99.42 75.7975 103.891 73.6934C110.495 70.5857 117.391 68.1951 123.983 65.0457C133.269 60.609 142.671 56.402 152.101 52.2813C162.431 47.7672 172.829 43.1321 183.326 39.0249C192.08 35.5994 201.237 33.3219 210.149 30.3513" stroke="#D2B467" stroke-opacity="0.79" stroke-linecap="round"/>
<path d="M76.3945 88.1408C75.6418 86.0081 80.2842 85.833 81.521 85.8106C85.2057 85.7436 88.867 84.1189 92.24 82.7813C98.5488 80.2795 105.116 78.6374 111.607 76.6968C131.104 70.8676 150.15 63.5395 169.629 57.6408C187.012 52.377 204.952 47.3927 223.198 46.6628" stroke="#D2B467" stroke-opacity="0.79" stroke-linecap="round"/>
<path d="M76.3946 87.6747C76.1132 85.1421 81.3779 85.4417 83.3853 85.241C94.2748 84.152 105.064 82.4623 115.853 80.5805C138.137 76.6937 159.903 69.9411 181.358 62.8708C200.24 56.6483 219.322 52.0316 239.044 49.4591" stroke="#D2B467" stroke-opacity="0.79" stroke-linecap="round"/>
<path d="M75.4624 88.1408C75.6128 85.2835 76.6686 85.1343 78.7247 86.2766C84.9797 89.7516 95.3676 88.2967 102.027 87.6747C122.408 85.771 142.588 81.8537 162.794 78.5869C183.581 75.2261 204.449 71.2843 225.529 73.6934" stroke="#D2B467" stroke-opacity="0.79" stroke-linecap="round"/>
<path d="M78.2588 85.3445C82.6705 80.231 88.9279 76.9302 94.3632 72.9943C105.06 65.2481 116.51 59.0492 128.333 53.1874C147.051 43.9068 166.952 37.6999 186.795 31.3351C202.956 26.1515 219.291 21.3134 235.782 17.302" stroke="#D2B467" stroke-opacity="0.79" stroke-linecap="round"/>
<path d="M73.1323 87.2087C81.7159 86.7038 90.2739 86.7426 98.8683 86.7426C114.072 86.7426 128.889 83.0268 143.79 80.4252C180.448 74.0246 216.057 63.2121 253.491 62.0423" stroke="#D2B467" stroke-opacity="0.79" stroke-linecap="round"/>
<path d="M79.1908 89.5389C79.1908 88.4073 80.0711 87.5162 80.0711 86.5355C80.0711 85.673 76.588 87.5532 76.291 87.6747C73.4416 88.8404 70.5424 89.4747 67.954 91.2219C61.5269 95.5602 55.5998 100.468 49.83 105.643C42.2274 112.463 35.6492 121.22 29.8937 129.619C25.2165 136.444 21.2964 143.494 17.9319 151.031C15.3759 156.756 10.9329 170.503 20.4692 171.563" stroke="#D2B467" stroke-opacity="0.79" stroke-linecap="round"/>
<path d="M20.0032 171.097C21.8002 171.097 23.6228 171.186 25.4145 171.071C31.7845 170.66 38.3124 165.873 43.3054 162.242" stroke="#D2B467" stroke-opacity="0.79" stroke-linecap="round"/>
<path d="M39.1109 163.64C38.3944 161.401 39.3866 161.625 41.1822 160.533C47.082 156.945 53.0793 153.55 58.9437 149.892C65.5518 145.77 72.6662 142.363 79.1131 138.008C83.9022 134.772 88.6348 131.583 93.6381 128.687" stroke="#D2B467" stroke-opacity="0.79" stroke-linecap="round"/>
<path d="M94.1042 131.017C94.2736 133.896 94.237 137.042 94.7774 139.872C95.5689 144.015 97.8197 147.629 98.5058 151.808C99.4768 157.722 99.1689 163.509 98.2986 169.414C97.2346 176.634 96.9038 183.862 96.4345 191.137" stroke="#D2B467" stroke-opacity="0.79" stroke-linecap="round"/>
<path d="M73.1323 199.525C82.1658 195.439 90.1657 189.573 99.2308 185.544" stroke="#D2B467" stroke-opacity="0.79" stroke-linecap="round"/>
<path d="M94.1042 189.272C95.5761 187.829 97.2194 185.748 99.2307 185.078" stroke="#D2B467" stroke-opacity="0.79" stroke-linecap="round"/>
<path d="M94.5702 189.272C94.3783 191 91.9775 189.13 94.8032 187.874C97.6617 186.604 94.6705 187.673 93.6381 189.48C92.9713 190.646 97.027 187.192 97.8325 186.502C99.3887 185.168 96.8961 187.622 96.4344 187.978C96.1807 188.174 94.3688 190.153 94.389 190.153C95.0288 190.153 95.5549 189.07 96.1496 188.832C97.1592 188.428 94.5106 190.264 93.7417 191.033C91.4217 193.353 97.4867 188.401 98.0914 187.512C98.5073 186.9 95.2895 186.683 94.6738 186.683C94.5981 186.683 95.4096 187.525 95.5023 187.641C96.1041 188.394 96.5651 187.317 96.9004 186.942C97.6196 186.138 100.397 181.4 99.4637 182.541C98.5538 183.653 97.878 188.065 98.2727 186.683C98.7113 185.148 96.7015 182.066 98.0656 180.702C98.494 180.274 98.6461 185.555 98.2986 186.424C98.156 186.781 98.2352 181.842 98.2986 180.987C98.416 179.402 98.8292 181.118 98.7387 181.842C98.5734 183.164 98.49 184.719 98.195 186.01C97.5214 188.957 97.1647 183.335 97.4701 182.385C97.9686 180.834 99.9609 177.232 99.2307 180.884" stroke="#D2B467" stroke-opacity="0.79" stroke-linecap="round"/>
<path d="M101.095 182.282C100.666 182.228 100.786 182.13 100.629 181.816" stroke="#D2B467" stroke-opacity="0.79" stroke-linecap="round"/>
<path d="M74.0644 203.254C74.4025 201.225 77.6113 200.208 79.1391 199.266C81.4147 197.865 83.7019 196.418 85.8968 194.891C89.9921 192.042 84.7772 195.522 83.3335 196.496C81.8361 197.507 69.035 203.296 69.4816 204.859C69.7177 205.685 79.5507 198.891 80.356 198.36C81.8905 197.35 84.0806 196.389 85.3013 194.994C86.9122 193.153 81.2293 197.707 79.1909 199.059C76.1626 201.069 73.0322 202.879 69.9736 204.833C69.1896 205.334 66.9148 206.1 67.7469 206.516C70.198 207.742 77.8234 200.981 79.5534 199.525C80.0563 199.102 82.9157 196.5 80.7703 198.179C79.3139 199.319 78.0049 200.469 76.3946 201.39" stroke="#D2B467" stroke-opacity="0.79" stroke-linecap="round"/>
<path d="M76.3945 202.788C77.76 202.029 78.8253 200.856 80.1229 199.991" stroke="#D2B467" stroke-opacity="0.79" stroke-linecap="round"/>
<path d="M82.9191 196.729C83.6215 196.641 83.087 196.295 82.6084 196.341C81.0385 196.49 79.4852 197.859 78.1551 198.593C74.3575 200.69 70.1742 202.483 66.7111 205.118C63.4991 207.562 68.895 203.173 69.5074 202.684C74.1902 198.947 79.4725 195.874 84.5761 192.742C87.0603 191.217 89.8083 190.032 85.6636 192.638C79.713 196.38 73.2845 199.383 66.9182 202.322C64.7272 203.333 61.0419 205.558 65.5201 203.513C70.9667 201.025 75.9572 197.514 81.0549 194.399" stroke="#D2B467" stroke-opacity="0.79" stroke-linecap="round"/>
<path d="M29.79 170.165C34.1999 165.314 40.1384 162.141 45.4284 158.332C47.6717 156.717 49.7964 154.415 52.1602 153.024C58.9852 149.01 39.7645 162.958 32.9747 167.032C28.2905 169.842 34.5653 166.032 35.9522 165.297C41.7477 162.224 47.457 158.947 53.1958 155.769C56.2754 154.063 59.6239 152.516 62.5685 150.591C65.388 148.747 56.7606 154.009 53.9208 155.821C48.6059 159.212 42.983 161.998 37.428 164.96C36.7068 165.345 36.506 165.644 37.3244 165.193C39.0711 164.233 40.7229 163.099 42.4768 162.138C47.2391 159.529 52.2849 157.339 56.9501 154.578C57.8744 154.031 64.3865 150.471 60.1606 152.533C54.1284 155.475 48.5413 159.35 42.7357 162.708C40.0687 164.25 37.4084 165.782 34.8647 167.524C34.8457 167.537 32.5504 169.108 32.897 169.207C35.206 169.866 40.3554 165.599 42.1143 164.468C47.5224 160.992 52.8085 157.331 58.2187 153.853" stroke="#D2B467" stroke-opacity="0.79" stroke-linecap="round"/>
<path d="M40.5092 162.708C36.8315 164.439 42.4235 159.521 43.1243 159.031C48.9439 154.967 55.2778 151.422 61.3777 147.794C66.1616 144.949 70.9152 142.035 75.592 139.017C78.8968 136.885 74.3691 139.296 73.3913 139.872C68.6577 142.659 63.6762 145.002 58.9439 147.794C57.53 148.629 56.0454 149.87 54.4906 150.435C53.094 150.943 57.0144 148.862 58.3225 148.157C63.9343 145.131 69.4704 142.002 74.9447 138.732C77.2377 137.363 79.5728 136.081 81.8836 134.745C81.999 134.678 83.9244 133.399 83.4889 133.399C82.2693 133.399 80.8192 134.159 79.7346 134.59C76.0385 136.057 72.424 137.697 68.8344 139.406C65.8901 140.807 62.946 142.201 60.1349 143.859C59.6671 144.135 57.4111 145.439 57.4163 145.438C61.5906 144.743 65.7258 142.468 69.5076 140.7C75.4773 137.91 81.6671 135.401 87.4503 132.234C90.684 130.463 89.576 130.733 86.9065 132.053C82.2848 134.337 77.4837 136.273 72.7958 138.422C72.0653 138.757 68.4408 140.9 71.3717 140.234C74.1247 139.609 77.0227 138.129 79.657 137.075" stroke="#D2B467" stroke-opacity="0.79" stroke-linecap="round"/>
<path d="M74.0643 140.804C68.7735 141 63.7329 146.042 59.6169 148.727" stroke="#D2B467" stroke-opacity="0.79" stroke-linecap="round"/>
<path d="M56.8207 152.455C60.3903 148.528 64.226 145.544 68.679 142.694C71.2724 141.034 68.9312 143.096 67.954 143.859C65.0026 146.165 61.9779 148.37 58.9438 150.565C58.3884 150.967 53.3274 153.827 55.2673 152.714C60.3763 149.782 65.3552 146.751 70.336 143.6C76.0114 140.01 81.7976 136.632 87.3725 132.881C87.9188 132.513 93.1243 129.267 90.9973 130.188C87.4597 131.721 84.0363 133.488 80.589 135.211C78.3092 136.351 75.9968 137.444 73.7537 138.655C73.0321 139.044 71.0777 140.144 71.8895 140.26C75.1532 140.726 80.2304 137.899 83.1781 136.817C88.1197 135.003 92.6768 132.71 97.263 130.162C99.8403 128.731 98.3719 128.903 96.3309 129.619C91.391 131.35 86.5705 133.348 81.8318 135.574C81.6241 135.671 75.9541 138.344 77.4303 138.836C79.4273 139.502 82.02 138.207 83.8513 137.541" stroke="#D2B467" stroke-opacity="0.79" stroke-linecap="round"/>
<path d="M71.2681 90.005C71.8731 89.5552 80.2221 82.9895 79.5534 83.0143C78.0289 83.0708 76.3714 84.3132 74.9965 84.8785C69.0355 87.3291 62.6529 90.0146 57.235 93.5262C53.722 95.8032 65.0399 90.4792 68.8343 88.7104C71.9771 87.2454 75.1657 86.006 78.0517 84.0499C79.4425 83.1073 80.7717 81.8848 82.3496 81.2537C87.1267 79.3428 72.8486 85.2058 68.1094 87.2087C67.5073 87.4631 55.8214 92.6297 59.2545 93.1637C61.3847 93.4951 64.2091 91.9952 66.1416 91.2995C69.9892 89.9144 73.7792 88.3399 77.5856 86.8462C79.3356 86.1595 81.0942 85.4865 82.7898 84.6713C83.5763 84.2932 85.0941 82.5559 85.0941 83.4286C85.0941 84.519 75.8427 87.9679 74.9188 88.3997C69.86 90.7642 64.8334 93.2186 59.7465 95.5198C58.7668 95.963 54.0149 97.2752 53.6361 98.6009C53.374 99.5183 55.579 98.6178 56.4842 98.3161C59.7797 97.2176 62.9276 95.682 66.1675 94.4324C66.9961 94.1128 79.1396 89.1251 78.4141 88.3997C76.3275 86.313 65.0338 92.452 63.0347 93.319C59.0271 95.0573 54.9039 96.789 51.1506 99.041C49.6073 99.967 48.5177 101.123 51.0729 100.206C57.4816 97.9056 63.7959 94.9796 69.8441 91.8691C70.5156 91.5238 80.989 86.1828 79.3462 85.1374C78.1034 84.3465 76.2241 85.5458 75.1518 86.0695C71.4132 87.8953 67.8424 89.6991 64.2775 91.8691" stroke="#D2B467" stroke-opacity="0.79" stroke-linecap="round"/>
<path d="M58.2187 95.5975C57.9213 95.9321 57.8848 96.1331 57.7527 96.5296" stroke="#D2B467" stroke-opacity="0.79" stroke-linecap="round"/>
<path d="M76.3945 137.541C76.1158 135.033 67.9704 141.201 66.9701 141.943C61.9479 145.669 56.8764 149.418 51.6942 152.921C47.3779 155.838 43.2786 159.092 38.7485 161.672C38.2469 161.958 33.1421 164.937 35.5121 162.863C39.7157 159.185 44.9374 156.325 49.5452 153.18C53.732 150.322 57.7888 147.34 62.1543 144.765C62.6181 144.492 68.8342 141.226 68.8342 141.581C68.8342 142.602 65.717 143.887 65.1059 144.273C62.0647 146.194 59.2297 148.434 56.3546 150.591" stroke="#D2B467" stroke-opacity="0.79" stroke-linecap="round"/>
<path d="M39.577 161.776C36.657 163.946 33.6986 166.054 30.7222 168.145C30.0465 168.62 28.9853 169.768 30.3338 168.689C35.023 164.937 40.0039 161.501 44.7553 157.814C50.4778 153.375 56.8046 149.753 62.7756 145.671C63.6536 145.071 65.9425 142.914 65.3648 143.807C64.235 145.553 61.6646 146.975 60.0829 148.26" stroke="#D2B467" stroke-opacity="0.79" stroke-linecap="round"/>
<path d="M33.9845 165.97C33.4239 166.371 30.2589 167.836 31.1882 168.3" stroke="#D2B467" stroke-opacity="0.79" stroke-linecap="round"/>
<path d="M40.043 160.844C36.1838 161.165 40.7615 158.396 42.1143 157.581C46.6281 154.863 51.2743 153.009 56.1215 151.031C59.6894 149.575 62.491 146.33 66.0379 145.102C68.9665 144.088 61.6297 149.501 59.0991 151.29C54.8365 154.303 49.6333 157.474 44.6517 159.135C41.2361 160.273 50.5368 154.982 53.5583 153.024C58.7819 149.64 64.1082 146.219 69.5592 143.212C69.8911 143.029 71.4639 142.196 71.8894 142.409C72.3549 142.642 71.121 143.115 70.6984 143.419C69.6145 144.198 68.4772 144.883 67.3325 145.568C62.4726 148.475 57.2833 151.208 52.5744 154.319C49.376 156.432 54.0138 154.843 55.06 154.267C62.0896 150.401 68.8712 145.617 75.3588 140.907C78.1425 138.887 85.3036 132.062 83.9806 135.237C82.5584 138.651 76.1161 142.292 72.7697 143.496C69.6028 144.637 78.8317 140.558 81.754 138.888C85.4555 136.773 88.9321 133.584 93.0685 132.311C95.7774 131.478 88.6801 135.923 86.285 137.438C83.9409 138.921 77.3973 143.734 79.0095 141.477C80.6139 139.231 84.0274 137.601 86.285 136.143C88.2014 134.906 94.0342 131.501 92.4212 133.114C91.9318 133.603 90.4985 134.47 90.8677 135.392C90.9626 135.63 91.7669 134.819 91.8775 134.745C92.736 134.173 93.7272 133.846 94.5702 133.244C95.1154 132.854 96.944 130.896 95.0104 131.742C93.7364 132.299 92.3183 133.322 91.3079 134.279C90.1425 135.383 84.3895 136.706 87.1912 134.745C89.9465 132.816 93.6703 131.35 96.7969 130.085C98.2052 129.515 96.4828 130.38 96.1237 130.603C94.0375 131.897 91.8547 132.968 89.6508 134.046C86.7315 135.475 77.4681 137.956 80.7183 137.956C81.9492 137.956 83.2532 137.127 84.3172 136.609C86.568 135.515 88.926 134.732 91.2043 133.71C93.7564 132.564 100.873 128.079 98.428 129.437C95.569 131.026 92.8287 132.82 89.9098 134.279" stroke="#D2B467" stroke-opacity="0.79" stroke-linecap="round"/>
<path d="M140.243 132.881C140.851 131.664 141.641 135.402 141.641 135.781C141.641 138.165 141.979 140.523 142.133 142.901C142.293 145.379 143.361 147.704 143.298 150.228C143.203 154.024 140.968 158.286 139.569 161.75C137.225 167.555 138.454 174.828 139.777 180.78C140.168 182.541 142.714 189.847 140.243 190.671" stroke="#D2B467" stroke-opacity="0.79" stroke-linecap="round"/>
<path d="M177.992 126.356C178.861 132.774 180.573 138.127 182.678 144.092C185.007 150.691 185.514 157.632 185.449 164.572C185.374 172.478 183.502 180.534 181.254 188.081C180.341 191.146 179.229 193.984 178.018 196.936C177.285 198.724 177.284 200.78 176.128 202.322" stroke="#D2B467" stroke-opacity="0.79" stroke-linecap="round"/>
<path d="M191.508 80.218C201.923 84.3211 213.409 86.9235 223.199 92.4387C227.724 94.9883 231.601 98.2842 234.177 102.847C238.312 110.173 236.45 121.2 233.4 128.687C230.417 136.007 223.787 141.367 221.334 148.727" stroke="#D2B467" stroke-opacity="0.79" stroke-linecap="round"/>
<path d="M154.224 125.424C169.647 137.6 183.825 150.783 201.346 160.119C211.682 165.625 222.531 170.372 232.416 176.689C238.502 180.579 242.573 184.745 243.238 192.069" stroke="#D2B467" stroke-opacity="0.79" stroke-linecap="round"/>
<path d="M142.107 131.017C142.107 128.457 140.191 130.578 139.311 131.483C136.612 134.258 135.199 137.715 133.615 141.166C131.528 145.71 128.758 150.005 127.193 154.785C126.006 158.415 125.621 162.298 124.397 165.97" stroke="#D2B467" stroke-opacity="0.79" stroke-width="4" stroke-linecap="round"/>
<path d="M119.737 175.757C119.143 178.33 117.126 180.512 116.008 182.748" stroke="#D2B467" stroke-opacity="0.79" stroke-width="4" stroke-linecap="round"/>
<path d="M126.261 163.174C123.228 165.637 119.884 168.031 117.717 171.356C116.727 172.875 116.059 174.588 115.076 176.12C113.708 178.25 111.863 180.561 111.814 183.214C111.76 186.101 114.18 188.34 116.94 188.34" stroke="#D2B467" stroke-opacity="0.79" stroke-width="4" stroke-linecap="round"/>
<path d="M118.805 172.029C116.63 180.726 113.212 189.059 113.212 198.127" stroke="#D2B467" stroke-opacity="0.79" stroke-width="4" stroke-linecap="round"/>
<path d="M121.601 165.504C115.194 174.567 110.8 185.661 107.62 196.263" stroke="#D2B467" stroke-opacity="0.79" stroke-width="4" stroke-linecap="round"/>
<path d="M109.95 107.715C125.917 103.124 141.43 97.2294 157.745 93.9663C166.578 92.1998 175.546 91.0235 184.517 90.2121C193.872 89.3659 202.259 89.1272 211.081 92.3352" stroke="#D2B467" stroke-opacity="0.79" stroke-width="4" stroke-linecap="round"/>
<path d="M111.814 107.249C132.849 102.401 153.955 98.7813 175.196 95.0279C187.89 92.7847 200.036 90.0049 212.946 90.0049" stroke="#D2B467" stroke-opacity="0.79" stroke-width="4" stroke-linecap="round"/>
<path d="M114.61 107.249C116.945 105.964 120.105 105.651 122.636 105.177C128.825 104.019 135.052 103.052 141.278 102.122C152.715 100.413 164.183 98.8588 175.662 97.4617C193.05 95.3453 211.353 93.8838 228.791 96.0635" stroke="#D2B467" stroke-opacity="0.79" stroke-width="4" stroke-linecap="round"/>
<path d="M112.746 110.511C124.848 109.145 136.781 106.446 148.994 106.316C159.115 106.209 169.311 105.696 179.416 105.125C189.05 104.582 198.797 103.935 208.441 104.711C213.956 105.155 219.996 105.411 225.063 107.715" stroke="#D2B467" stroke-opacity="0.79" stroke-width="4" stroke-linecap="round"/>
<path d="M115.542 110.045C118.721 109.311 121.792 107.848 125.018 107.093C128.24 106.339 131.526 105.992 134.754 105.281C143.607 103.33 152.66 102.67 161.681 101.889C171.436 101.045 180.83 101.234 190.549 102.355C198.455 103.267 206.085 105.298 213.878 106.783" stroke="#D2B467" stroke-opacity="0.79" stroke-width="4" stroke-linecap="round"/>
<path d="M142.107 104.452C154.631 101.948 167.822 101.656 180.581 101.656C187.068 101.656 193.48 101.519 199.896 102.588" stroke="#D2B467" stroke-opacity="0.79" stroke-width="4" stroke-linecap="round"/>
<path d="M162.147 102.122C182.646 95.8146 203.139 99.6332 223.665 103.054" stroke="#D2B467" stroke-opacity="0.79" stroke-width="4" stroke-linecap="round"/>
<path d="M179.856 98.8598C177.853 96.8568 181.642 97.031 183.43 96.9956C190.413 96.8573 197.383 97.2538 204.35 97.6947C216.272 98.4493 229.095 98.4619 240.442 102.588" stroke="#D2B467" stroke-opacity="0.79" stroke-width="4" stroke-linecap="round"/>
<path d="M177.526 99.7919C176.132 98.5972 183.762 96.9119 184.802 96.7885C189.159 96.2715 193.621 96.0635 198.006 96.0635C203.19 96.0635 209.956 95.8477 214.81 97.9277" stroke="#D2B467" stroke-opacity="0.79" stroke-width="4" stroke-linecap="round"/>
<path d="M163.079 95.1314C164.915 95.0348 166.706 94.2528 168.464 93.7851C173.484 92.4499 178.316 91.6364 183.481 91.2995C190.355 90.8512 197.238 90.6817 204.091 91.4031" stroke="#D2B467" stroke-opacity="0.79" stroke-width="4" stroke-linecap="round"/>
<path d="M176.594 92.8012C187.534 87.3312 201.994 88.607 213.411 91.8691" stroke="#D2B467" stroke-opacity="0.79" stroke-width="4" stroke-linecap="round"/>
<path d="M152.826 124.492C158.98 126.269 165.797 127.81 169.604 133.347C172.55 137.633 177.171 139.943 181.229 142.927C187.951 147.87 189.35 154.974 188.245 162.708" stroke="#D2B467" stroke-opacity="0.79" stroke-width="4" stroke-linecap="round"/>
<path d="M181.72 154.319C187.02 150.854 191.323 145.804 196.168 141.736C201.424 137.323 206.979 133.028 212.945 129.619C224.055 123.27 234.905 117.348 247.174 113.54C249.645 112.773 251.966 111.705 254.372 110.77C255.59 110.296 255.329 110.045 254.19 110.045C253.134 110.045 253.025 109.936 253.025 108.88C253.025 107.839 252.658 108.647 253.957 108.647" stroke="#D2B467" stroke-opacity="0.79" stroke-width="4" stroke-linecap="round"/>
<path d="M140.709 131.949V132.415" stroke="#D2B467" stroke-opacity="0.79" stroke-width="4" stroke-linecap="round"/>
<path d="M141.175 132.415C140.233 131.591 140.9 134.559 140.942 134.875C141.605 139.916 141.248 145.102 141.744 150.176C141.979 152.577 142.814 158.519 144.903 159.912" stroke="#D2B467" stroke-opacity="0.79" stroke-width="4" stroke-linecap="round"/>
<path d="M142.107 144.532V156.649" stroke="#D2B467" stroke-opacity="0.79" stroke-width="4" stroke-linecap="round"/>
<path d="M142.107 152.455C142.161 155.564 142.401 158.672 142.573 161.776" stroke="#D2B467" stroke-opacity="0.79" stroke-width="4" stroke-linecap="round"/>
<path d="M143.039 170.631V173.427" stroke="#D2B467" stroke-opacity="0.79" stroke-width="4" stroke-linecap="round"/>
<path d="M142.107 154.319C140.051 155.461 141.612 161.342 141.9 162.993C142.59 166.944 143.106 170.837 143.505 174.825" stroke="#D2B467" stroke-opacity="0.79" stroke-width="4" stroke-linecap="round"/>
<path d="M142.107 163.174C142.107 166.448 142.362 169.694 142.573 172.961" stroke="#D2B467" stroke-opacity="0.79" stroke-width="4" stroke-linecap="round"/>
<path d="M142.107 157.581C141.465 155.096 141.946 156.758 142.107 158.125C142.434 160.907 142.852 163.641 143.039 166.436" stroke="#D2B467" stroke-opacity="0.79" stroke-width="4" stroke-linecap="round"/>
<path d="M142.573 161.31C141.766 161.411 141.737 182.94 143.505 186.476" stroke="#D2B467" stroke-opacity="0.79" stroke-width="4" stroke-linecap="round"/>
<path d="M142.573 172.961C142.573 172.752 142.671 168.795 142.107 169.077C141.026 169.617 141.641 174.03 141.641 174.903C141.641 180.471 141.948 185.682 143.039 191.137" stroke="#D2B467" stroke-opacity="0.79" stroke-width="4" stroke-linecap="round"/>
<path d="M142.107 177.621C142.107 177.426 142.147 176.249 141.641 176.534C140.687 177.071 141.175 180.085 141.175 180.909C141.175 183.106 140.087 189.583 141.641 191.137" stroke="#D2B467" stroke-opacity="0.79" stroke-width="4" stroke-linecap="round"/>
<path d="M141.175 181.35C139.456 183.259 139.446 186.236 140.709 188.34" stroke="#D2B467" stroke-opacity="0.79" stroke-width="4" stroke-linecap="round"/>
<path d="M157.02 128.221C157.896 129.938 167.122 144.683 170.07 141.736" stroke="#D2B467" stroke-opacity="0.79" stroke-width="4" stroke-linecap="round"/>
<path d="M164.011 132.881C167.574 136.444 171.238 140.031 174.264 144.066" stroke="#D2B467" stroke-opacity="0.79" stroke-width="4" stroke-linecap="round"/>
<path d="M167.739 135.211C169.618 136.906 171.478 138.617 173.332 140.338" stroke="#D2B467" stroke-opacity="0.79" stroke-width="4" stroke-linecap="round"/>
<path d="M162.147 128.687C165.475 130.65 168.048 133.535 171.442 135.444C173.299 136.489 173.571 138.49 174.264 140.338" stroke="#D2B467" stroke-opacity="0.79" stroke-width="4" stroke-linecap="round"/>
<path d="M160.749 128.687C163.163 133.516 168.494 134.867 172.814 137.567C175.174 139.042 175.786 141.177 176.594 143.6" stroke="#D2B467" stroke-opacity="0.79" stroke-width="4" stroke-linecap="round"/>
<path d="M170.069 136.609C173.637 137.119 177.001 140.592 178.458 143.704C179.332 145.569 180.834 151.546 182.653 152.455" stroke="#D2B467" stroke-opacity="0.79" stroke-width="4" stroke-linecap="round"/>
<path d="M180.323 145.464C181.464 150.032 182.58 154.567 184.051 158.98" stroke="#D2B467" stroke-opacity="0.79" stroke-width="4" stroke-linecap="round"/>
<path d="M181.255 148.26C181.255 152.421 182.715 156.783 183.585 160.844" stroke="#D2B467" stroke-opacity="0.79" stroke-width="4" stroke-linecap="round"/>
<path d="M182.187 151.989C182.187 148.908 182.874 155.613 183.119 156.468C184.389 160.913 184.078 165.64 184.983 170.165" stroke="#D2B467" stroke-opacity="0.79" stroke-width="4" stroke-linecap="round"/>
<path d="M183.119 156.649C182.772 155.392 182.653 154.171 182.653 152.869C182.653 151.89 183.011 154.796 183.119 155.769C183.722 161.2 184.71 166.578 184.983 172.029" stroke="#D2B467" stroke-opacity="0.79" stroke-width="4" stroke-linecap="round"/>
<path d="M183.585 159.912C183.131 158.499 182.653 157.061 182.653 155.562C182.653 154.382 183.189 157.863 183.352 159.031C184.226 165.325 183.261 171.766 184.051 178.087" stroke="#D2B467" stroke-opacity="0.79" stroke-width="4" stroke-linecap="round"/>
<path d="M183.119 158.979C183.119 161.957 183.648 164.993 184.051 167.938C184.701 172.69 184.517 177.496 184.517 182.282" stroke="#D2B467" stroke-opacity="0.79" stroke-width="4" stroke-linecap="round"/>
<path d="M186.381 171.563C186.71 171.316 185.566 179.013 185.449 179.951" stroke="#D2B467" stroke-opacity="0.79" stroke-width="4" stroke-linecap="round"/>
<path d="M68.4719 82.5483C69.4258 81.9413 69.8019 80.4597 70.2325 79.4931C71.2946 77.1093 72.6619 75.144 74.3752 73.1756C80.8208 65.77 88.395 59.3556 96.2792 53.55C122.016 34.5981 149.288 19.0818 178.458 6.117" stroke="#D2B467" stroke-opacity="0.79" stroke-width="4" stroke-linecap="round"/>
<path d="M71.7341 79.2859C66.0275 82.7325 61.3881 86.8333 57.1831 91.9727C50.0089 100.741 42.7021 109.068 34.2952 116.699C29.3845 121.156 24.7521 125.439 20.4692 130.525C19.1808 132.055 17.7535 133.318 16.3525 134.719C16.1057 134.966 15.3013 135.677 15.8087 135.677" stroke="#D2B467" stroke-opacity="0.79" stroke-width="4" stroke-linecap="round"/>
<path d="M98.2986 99.3258C101.319 95.55 106.105 93.5901 110.26 91.2995C119.776 86.0543 130.09 82.6198 140.372 79.2342C168.38 70.012 196.774 61.4254 226.461 60.6442" stroke="#D2B467" stroke-opacity="0.79" stroke-width="4" stroke-linecap="round"/>
<path d="M66.6075 112.841C66.358 110.345 67.8881 110.466 69.8698 109.475C72.6631 108.079 67.5834 112.501 69.8698 110.977" stroke="#D2B467" stroke-opacity="0.79" stroke-width="4" stroke-linecap="round"/>
<path d="M216.674 165.504C223.197 168.321 224.307 175.82 227.16 181.738C229.004 185.564 231.339 189.304 233.451 193.001" stroke="#D2B467" stroke-opacity="0.79" stroke-width="4" stroke-linecap="round"/>
<path d="M223.199 170.165C221.113 168.992 222.961 171.452 223.458 172.987C224.848 177.284 227.897 181.428 230.655 184.974C231.896 186.569 233.664 189.383 232.727 191.525C232.223 192.675 230.307 191.777 231.587 191.137" stroke="#D2B467" stroke-opacity="0.79" stroke-width="4" stroke-linecap="round"/>
<path d="M188.711 152.455C195.4 143.217 207.441 138.03 216.57 131.483C220.855 128.41 225.396 125.424 229.904 122.68C230.811 122.128 233.451 120.376 233.451 122.162" stroke="#D2B467" stroke-opacity="0.79" stroke-width="4" stroke-linecap="round"/>
<path d="M190.575 150.591C200.591 140.575 212.831 132.336 224.597 124.492" stroke="#D2B467" stroke-opacity="0.79" stroke-width="4" stroke-linecap="round"/>
</g>
</g>
<defs>
<clipPath id="clip0_92_2">
<rect width="257" height="219" fill="white"/>
</clipPath>
</defs>
</svg>
